<svg width="148" height="148" viewBox="0 0 148 148" fill="none" xmlns="http://www.w3.org/2000/svg">
<g filter="url(#filter0_dddd)">
<circle cx="71.5" cy="71.5" r="56.5" fill="#F8F8F8"/>
<circle cx="71.5" cy="71.5" r="56.5" fill="url(#paint0_linear)" fill-opacity="0.2"/>
<circle cx="71.5" cy="71.5" r="56" stroke="#F6F6F6" stroke-opacity="0.5"/>
</g>
<path d="M96.7143 65.5714H77.4286V46.2857C77.4286 43.9192 75.5094 42 73.1429 42H68.8571C66.4906 42 64.5714 43.9192 64.5714 46.2857V65.5714H45.2857C42.9192 65.5714 41 67.4906 41 69.8571V74.1429C41 76.5094 42.9192 78.4286 45.2857 78.4286H64.5714V97.7143C64.5714 100.081 66.4906 102 68.8571 102H73.1429C75.5094 102 77.4286 100.081 77.4286 97.7143V78.4286H96.7143C99.0808 78.4286 101 76.5094 101 74.1429V69.8571C101 67.4906 99.0808 65.5714 96.7143 65.5714Z" fill="#FB8F1D"/>
<path d="M96.7143 65.5714H77.4286V46.2857C77.4286 43.9192 75.5094 42 73.1429 42H68.8571C66.4906 42 64.5714 43.9192 64.5714 46.2857V65.5714H45.2857C42.9192 65.5714 41 67.4906 41 69.8571V74.1429C41 76.5094 42.9192 78.4286 45.2857 78.4286H64.5714V97.7143C64.5714 100.081 66.4906 102 68.8571 102H73.1429C75.5094 102 77.4286 100.081 77.4286 97.7143V78.4286H96.7143C99.0808 78.4286 101 76.5094 101 74.1429V69.8571C101 67.4906 99.0808 65.5714 96.7143 65.5714Z" fill="url(#paint1_linear)" fill-opacity="0.4" style="mix-blend-mode:soft-light"/>
<defs>
<filter id="filter0_dddd" x="0" y="0" width="148" height="148" filterUnits="userSpaceOnUse" color-interpolation-filters="sRGB">
<feFlood flood-opacity="0" result="BackgroundImageFix"/>
<feColorMatrix in="SourceAlpha" type="matrix" values="0 0 0 0 0 0 0 0 0 0 0 0 0 0 0 0 0 0 127 0"/>
<feMorphology radius="1" operator="dilate" in="SourceAlpha" result="effect1_dropShadow"/>
<feOffset dx="-4" dy="-4"/>
<feGaussianBlur stdDeviation="5"/>
<feColorMatrix type="matrix" values="0 0 0 0 1 0 0 0 0 1 0 0 0 0 1 0 0 0 0.26 0"/>
<feBlend mode="normal" in2="BackgroundImageFix" result="effect1_dropShadow"/>
<feColorMatrix in="SourceAlpha" type="matrix" values="0 0 0 0 0 0 0 0 0 0 0 0 0 0 0 0 0 0 127 0"/>
<feMorphology radius="2" operator="dilate" in="SourceAlpha" result="effect2_dropShadow"/>
<feOffset dx="8" dy="8"/>
<feGaussianBlur stdDeviation="5"/>
<feColorMatrix type="matrix" values="0 0 0 0 0 0 0 0 0 0 0 0 0 0 0 0 0 0 0.2 0"/>
<feBlend mode="normal" in2="effect1_dropShadow" result="effect2_dropShadow"/>
<feColorMatrix in="SourceAlpha" type="matrix" values="0 0 0 0 0 0 0 0 0 0 0 0 0 0 0 0 0 0 127 0"/>
<feOffset dx="1" dy="1"/>
<feGaussianBlur stdDeviation="1"/>
<feColorMatrix type="matrix" values="0 0 0 0 0 0 0 0 0 0 0 0 0 0 0 0 0 0 0.4 0"/>
<feBlend mode="normal" in2="effect2_dropShadow" result="effect3_dropShadow"/>
<feColorMatrix in="SourceAlpha" type="matrix" values="0 0 0 0 0 0 0 0 0 0 0 0 0 0 0 0 0 0 127 0"/>
<feOffset dx="3" dy="3"/>
<feGaussianBlur stdDeviation="3"/>
<feColorMatrix type="matrix" values="0 0 0 0 0 0 0 0 0 0 0 0 0 0 0 0 0 0 0.25 0"/>
<feBlend mode="normal" in2="effect3_dropShadow" result="effect4_dropShadow"/>
<feBlend mode="normal" in="SourceGraphic" in2="effect4_dropShadow" result="shape"/>
</filter>
<linearGradient id="paint0_linear" x1="128" y1="111" x2="11" y2="44" gradientUnits="userSpaceOnUse">
<stop offset="0.0167493"/>
<stop offset="1" stop-color="white" stop-opacity="0"/>
</linearGradient>
<linearGradient id="paint1_linear" x1="46.0676" y1="47.2703" x2="93.9054" y2="98.5541" gradientUnits="userSpaceOnUse">
<stop stop-color="white"/>
<stop offset="1"/>
</linearGradient>
</defs>
</svg>
