<svg width="30" height="27" viewBox="0 0 30 27" fill="none" xmlns="http://www.w3.org/2000/svg">
<path d="M26.8594 1.89173C23.4726 -0.952719 18.2402 -0.525467 15 2.76964C11.7598 -0.525467 6.52735 -0.958572 3.14063 1.89173C-1.26562 5.59653 -0.621087 11.6366 2.51954 14.8381L12.7969 25.297C13.3828 25.8939 14.168 26.2275 15 26.2275C15.8379 26.2275 16.6172 25.8998 17.2031 25.3028L27.4805 14.8439C30.6152 11.6424 31.2715 5.60238 26.8594 1.89173V1.89173ZM25.4766 12.8657L15.1992 23.3246C15.0586 23.465 14.9414 23.465 14.8008 23.3246L4.52344 12.8657C2.38477 10.6884 1.95118 6.56809 4.95118 4.04555C7.23047 2.13169 10.7461 2.41848 12.9492 4.66009L15 6.74953L17.0508 4.66009C19.2656 2.40677 22.7812 2.13169 25.0488 4.03969C28.043 6.56224 27.5976 10.706 25.4766 12.8657V12.8657Z" fill="#FB8F1D"/>
<path d="M26.8594 1.89173C23.4726 -0.952719 18.2402 -0.525467 15 2.76964C11.7598 -0.525467 6.52735 -0.958572 3.14063 1.89173C-1.26562 5.59653 -0.621087 11.6366 2.51954 14.8381L12.7969 25.297C13.3828 25.8939 14.168 26.2275 15 26.2275C15.8379 26.2275 16.6172 25.8998 17.2031 25.3028L27.4805 14.8439C30.6152 11.6424 31.2715 5.60238 26.8594 1.89173V1.89173ZM25.4766 12.8657L15.1992 23.3246C15.0586 23.465 14.9414 23.465 14.8008 23.3246L4.52344 12.8657C2.38477 10.6884 1.95118 6.56809 4.95118 4.04555C7.23047 2.13169 10.7461 2.41848 12.9492 4.66009L15 6.74953L17.0508 4.66009C19.2656 2.40677 22.7812 2.13169 25.0488 4.03969C28.043 6.56224 27.5976 10.706 25.4766 12.8657V12.8657Z" fill="url(#paint0_linear)" fill-opacity="0.4" style="mix-blend-mode:soft-light"/>
<defs>
<linearGradient id="paint0_linear" x1="2.53378" y1="2.30377" x2="23.067" y2="27.4823" gradientUnits="userSpaceOnUse">
<stop stop-color="white"/>
<stop offset="1"/>
</linearGradient>
</defs>
</svg>
