<svg width="30" height="27" viewBox="0 0 30 27" fill="none" xmlns="http://www.w3.org/2000/svg">
<path d="M27.0881 1.79335C23.8772 -0.940592 19.1019 -0.448834 16.1547 2.58952L15.0004 3.77794L13.8462 2.58952C10.9048 -0.448834 6.12365 -0.940592 2.91277 1.79335C-0.766844 4.93123 -0.9602 10.563 2.33271 13.9643L13.6704 25.6611C14.4028 26.4163 15.5922 26.4163 16.3246 25.6611L27.6623 13.9643C30.9611 10.563 30.7677 4.93123 27.0881 1.79335V1.79335Z" fill="#FB8F1D"/>
<path d="M27.0881 1.79335C23.8772 -0.940592 19.1019 -0.448834 16.1547 2.58952L15.0004 3.77794L13.8462 2.58952C10.9048 -0.448834 6.12365 -0.940592 2.91277 1.79335C-0.766844 4.93123 -0.9602 10.563 2.33271 13.9643L13.6704 25.6611C14.4028 26.4163 15.5922 26.4163 16.3246 25.6611L27.6623 13.9643C30.9611 10.563 30.7677 4.93123 27.0881 1.79335V1.79335Z" fill="url(#paint0_linear)" fill-opacity="0.4" style="mix-blend-mode:soft-light"/>
<defs>
<linearGradient id="paint0_linear" x1="2.53378" y1="2.30377" x2="23.067" y2="27.4823" gradientUnits="userSpaceOnUse">
<stop stop-color="white"/>
<stop offset="1"/>
</linearGradient>
</defs>
</svg>
