<svg width="31" height="27" viewBox="0 0 31 27" fill="none" xmlns="http://www.w3.org/2000/svg">
<path d="M28.7405 2.4608L28.5999 2.31432C25.9047 -0.439425 21.6862 -0.7148 18.6629 1.44718L20.6726 7.50543L15.0479 11.2552L17.8602 18.7548L9.42323 10.3178L15.0479 6.56798L13.3722 1.49992C10.3431 -0.7148 6.08358 -0.457002 3.37085 2.32018L3.23023 2.4608C0.376883 5.3786 0.253843 10.0248 2.80252 13.136L15.2295 25.9438C15.6455 26.3715 16.3193 26.3715 16.7353 25.9438L29.1682 13.1301C31.7169 10.0248 31.5938 5.3786 28.7405 2.4608V2.4608Z" fill="#FB8F1D"/>
<path d="M28.7405 2.4608L28.5999 2.31432C25.9047 -0.439425 21.6862 -0.7148 18.6629 1.44718L20.6726 7.50543L15.0479 11.2552L17.8602 18.7548L9.42323 10.3178L15.0479 6.56798L13.3722 1.49992C10.3431 -0.7148 6.08358 -0.457002 3.37085 2.32018L3.23023 2.4608C0.376883 5.3786 0.253843 10.0248 2.80252 13.136L15.2295 25.9438C15.6455 26.3715 16.3193 26.3715 16.7353 25.9438L29.1682 13.1301C31.7169 10.0248 31.5938 5.3786 28.7405 2.4608V2.4608Z" fill="url(#paint0_linear)" fill-opacity="0.4" style="mix-blend-mode:soft-light"/>
<defs>
<linearGradient id="paint0_linear" x1="3.51913" y1="2.31838" x2="24.0755" y2="27.5016" gradientUnits="userSpaceOnUse">
<stop stop-color="white"/>
<stop offset="1"/>
</linearGradient>
</defs>
</svg>
