<svg width="23" height="30" viewBox="0 0 23 30" fill="none" xmlns="http://www.w3.org/2000/svg">
<path d="M10.0279 29.3947C1.56994 17.0526 0 15.7859 0 11.25C0 5.03678 5.00386 0 11.1765 0C17.3491 0 22.3529 5.03678 22.3529 11.25C22.3529 15.7859 20.783 17.0526 12.3251 29.3947C11.77 30.2018 10.5828 30.2017 10.0279 29.3947ZM11.1765 15.9375C13.7484 15.9375 15.8333 13.8388 15.8333 11.25C15.8333 8.66115 13.7484 6.5625 11.1765 6.5625C8.60454 6.5625 6.51961 8.66115 6.51961 11.25C6.51961 13.8388 8.60454 15.9375 11.1765 15.9375Z" fill="#FB8F1D"/>
<path d="M10.0279 29.3947C1.56994 17.0526 0 15.7859 0 11.25C0 5.03678 5.00386 0 11.1765 0C17.3491 0 22.3529 5.03678 22.3529 11.25C22.3529 15.7859 20.783 17.0526 12.3251 29.3947C11.77 30.2018 10.5828 30.2017 10.0279 29.3947ZM11.1765 15.9375C13.7484 15.9375 15.8333 13.8388 15.8333 11.25C15.8333 8.66115 13.7484 6.5625 11.1765 6.5625C8.60454 6.5625 6.51961 8.66115 6.51961 11.25C6.51961 13.8388 8.60454 15.9375 11.1765 15.9375Z" fill="url(#paint0_linear)" fill-opacity="0.4" style="mix-blend-mode:soft-light"/>
<defs>
<linearGradient id="paint0_linear" x1="1.88792" y1="2.63514" x2="25.272" y2="21.3136" gradientUnits="userSpaceOnUse">
<stop stop-color="white"/>
<stop offset="1"/>
</linearGradient>
</defs>
</svg>
