<svg width="98" height="118" viewBox="0 0 98 118" fill="none" xmlns="http://www.w3.org/2000/svg">
<g filter="url(#filter0_dddd)">
<path d="M40.4683 91.4061C18.1438 58.9052 14 55.5696 14 43.625C14 27.2635 27.2075 14 43.5 14C59.7924 14 73 27.2635 73 43.625C73 55.5696 68.8562 58.9052 46.5317 91.4061C45.0667 93.5314 41.9331 93.5312 40.4683 91.4061ZM43.5 55.9687C50.2885 55.9687 55.7917 50.4423 55.7917 43.625C55.7917 36.8077 50.2885 31.2812 43.5 31.2812C36.7115 31.2812 31.2083 36.8077 31.2083 43.625C31.2083 50.4423 36.7115 55.9687 43.5 55.9687Z" fill="#F8F8F8"/>
<path d="M40.4683 91.4061C18.1438 58.9052 14 55.5696 14 43.625C14 27.2635 27.2075 14 43.5 14C59.7924 14 73 27.2635 73 43.625C73 55.5696 68.8562 58.9052 46.5317 91.4061C45.0667 93.5314 41.9331 93.5312 40.4683 91.4061ZM43.5 55.9687C50.2885 55.9687 55.7917 50.4423 55.7917 43.625C55.7917 36.8077 50.2885 31.2812 43.5 31.2812C36.7115 31.2812 31.2083 36.8077 31.2083 43.625C31.2083 50.4423 36.7115 55.9687 43.5 55.9687Z" fill="url(#paint0_linear)" fill-opacity="0.3"/>
<path d="M40.8799 91.1223C36.8863 85.3082 33.4778 80.432 30.5721 76.275C25.3445 68.7963 21.7441 63.6456 19.2914 59.55C17.3897 56.3745 16.1967 53.8625 15.4759 51.418C14.7562 48.9774 14.5 46.58 14.5 43.625C14.5 27.5377 27.4857 14.5 43.5 14.5C59.5143 14.5 72.5 27.5377 72.5 43.625C72.5 46.58 72.2438 48.9774 71.5241 51.418C70.8033 53.8625 69.6103 56.3745 67.7086 59.55C65.2559 63.6456 61.6555 68.7963 56.4279 76.275C53.5221 80.4322 50.1134 85.3086 46.1196 91.123C44.8531 92.9593 42.1459 92.9589 40.8799 91.1223ZM43.5 56.4687C50.5667 56.4687 56.2917 50.7164 56.2917 43.625C56.2917 36.5336 50.5667 30.7812 43.5 30.7812C36.4333 30.7812 30.7083 36.5336 30.7083 43.625C30.7083 50.7164 36.4333 56.4687 43.5 56.4687Z" stroke="#E7EBF0" stroke-opacity="0.5"/>
</g>
<defs>
<filter id="filter0_dddd" x="0" y="0" width="98" height="118" filterUnits="userSpaceOnUse" color-interpolation-filters="sRGB">
<feFlood flood-opacity="0" result="BackgroundImageFix"/>
<feColorMatrix in="SourceAlpha" type="matrix" values="0 0 0 0 0 0 0 0 0 0 0 0 0 0 0 0 0 0 127 0"/>
<feOffset dx="-4" dy="-4"/>
<feGaussianBlur stdDeviation="5"/>
<feColorMatrix type="matrix" values="0 0 0 0 1 0 0 0 0 1 0 0 0 0 1 0 0 0 0.26 0"/>
<feBlend mode="normal" in2="BackgroundImageFix" result="effect1_dropShadow"/>
<feColorMatrix in="SourceAlpha" type="matrix" values="0 0 0 0 0 0 0 0 0 0 0 0 0 0 0 0 0 0 127 0"/>
<feOffset dx="10" dy="10"/>
<feGaussianBlur stdDeviation="7.5"/>
<feColorMatrix type="matrix" values="0 0 0 0 0 0 0 0 0 0 0 0 0 0 0 0 0 0 0.2 0"/>
<feBlend mode="normal" in2="effect1_dropShadow" result="effect2_dropShadow"/>
<feColorMatrix in="SourceAlpha" type="matrix" values="0 0 0 0 0 0 0 0 0 0 0 0 0 0 0 0 0 0 127 0"/>
<feOffset dx="3" dy="5"/>
<feGaussianBlur stdDeviation="5"/>
<feColorMatrix type="matrix" values="0 0 0 0 0 0 0 0 0 0 0 0 0 0 0 0 0 0 0.4 0"/>
<feBlend mode="normal" in2="effect2_dropShadow" result="effect3_dropShadow"/>
<feColorMatrix in="SourceAlpha" type="matrix" values="0 0 0 0 0 0 0 0 0 0 0 0 0 0 0 0 0 0 127 0"/>
<feOffset dx="2" dy="2"/>
<feGaussianBlur stdDeviation="2.5"/>
<feColorMatrix type="matrix" values="0 0 0 0 0 0 0 0 0 0 0 0 0 0 0 0 0 0 0.25 0"/>
<feBlend mode="normal" in2="effect3_dropShadow" result="effect4_dropShadow"/>
<feBlend mode="normal" in="SourceGraphic" in2="effect4_dropShadow" result="shape"/>
</filter>
<linearGradient id="paint0_linear" x1="24" y1="16.5" x2="90.5" y2="104.5" gradientUnits="userSpaceOnUse">
<stop stop-color="white"/>
<stop offset="1"/>
</linearGradient>
</defs>
</svg>
