<svg width="30" height="25" viewBox="0 0 30 25" fill="none" xmlns="http://www.w3.org/2000/svg">
<path d="M26.9163 6.0177C26.9354 6.28179 26.9354 6.54593 26.9354 6.81002C26.9354 14.8651 20.7488 24.1463 9.44166 24.1463C5.95813 24.1463 2.7221 23.1465 0 21.411C0.494943 21.4676 0.970785 21.4865 1.48477 21.4865C4.3591 21.4865 7.00509 20.5244 9.11804 18.8832C6.41499 18.8266 4.14974 17.0722 3.36927 14.6576C3.75001 14.7141 4.1307 14.7519 4.53049 14.7519C5.0825 14.7519 5.63457 14.6764 6.1485 14.5444C3.33124 13.9784 1.21823 11.5261 1.21823 8.56439V8.48897C2.03673 8.94171 2.98859 9.22467 3.9974 9.26236C2.3413 8.1682 1.25631 6.30066 1.25631 4.18784C1.25631 3.056 1.56083 2.01846 2.09386 1.11297C5.12053 4.81037 9.67006 7.22497 14.7715 7.48911C14.6764 7.03637 14.6193 6.56481 14.6193 6.09319C14.6193 2.7353 17.3604 0 20.7678 0C22.5381 0 24.137 0.735707 25.2602 1.92416C26.6497 1.66007 27.9822 1.15071 29.1625 0.452747C28.7055 1.8676 27.7348 3.05606 26.4594 3.81058C27.6967 3.67859 28.896 3.33896 30 2.8674C29.1626 4.07467 28.1156 5.14989 26.9163 6.0177V6.0177Z" fill="#FB8F1D"/>
<path d="M26.9163 6.0177C26.9354 6.28179 26.9354 6.54593 26.9354 6.81002C26.9354 14.8651 20.7488 24.1463 9.44166 24.1463C5.95813 24.1463 2.7221 23.1465 0 21.411C0.494943 21.4676 0.970785 21.4865 1.48477 21.4865C4.3591 21.4865 7.00509 20.5244 9.11804 18.8832C6.41499 18.8266 4.14974 17.0722 3.36927 14.6576C3.75001 14.7141 4.1307 14.7519 4.53049 14.7519C5.0825 14.7519 5.63457 14.6764 6.1485 14.5444C3.33124 13.9784 1.21823 11.5261 1.21823 8.56439V8.48897C2.03673 8.94171 2.98859 9.22467 3.9974 9.26236C2.3413 8.1682 1.25631 6.30066 1.25631 4.18784C1.25631 3.056 1.56083 2.01846 2.09386 1.11297C5.12053 4.81037 9.67006 7.22497 14.7715 7.48911C14.6764 7.03637 14.6193 6.56481 14.6193 6.09319C14.6193 2.7353 17.3604 0 20.7678 0C22.5381 0 24.137 0.735707 25.2602 1.92416C26.6497 1.66007 27.9822 1.15071 29.1625 0.452747C28.7055 1.8676 27.7348 3.05606 26.4594 3.81058C27.6967 3.67859 28.896 3.33896 30 2.8674C29.1626 4.07467 28.1156 5.14989 26.9163 6.0177V6.0177Z" fill="url(#paint0_linear)" fill-opacity="0.4" style="mix-blend-mode:soft-light"/>
<defs>
<linearGradient id="paint0_linear" x1="2.53378" y1="2.12096" x2="21.0657" y2="26.8041" gradientUnits="userSpaceOnUse">
<stop stop-color="white"/>
<stop offset="1"/>
</linearGradient>
</defs>
</svg>
