<svg width="30" height="22" viewBox="0 0 30 22" fill="none" xmlns="http://www.w3.org/2000/svg">
<path d="M29.3731 3.29118C29.0281 1.9957 28.0115 0.975419 26.7208 0.629172C24.3813 0 15 0 15 0C15 0 5.61879 0 3.27919 0.629172C1.98847 0.975474 0.971904 1.9957 0.626879 3.29118C0 5.63932 0 10.5385 0 10.5385C0 10.5385 0 15.4377 0.626879 17.7858C0.971904 19.0813 1.98847 20.0591 3.27919 20.4053C5.61879 21.0345 15 21.0345 15 21.0345C15 21.0345 24.3812 21.0345 26.7208 20.4053C28.0115 20.0591 29.0281 19.0813 29.3731 17.7858C30 15.4377 30 10.5385 30 10.5385C30 10.5385 30 5.63932 29.3731 3.29118V3.29118ZM11.9318 14.9866V6.09041L19.7727 10.5386L11.9318 14.9866V14.9866Z" fill="#FB8F1D"/>
<path d="M29.3731 3.29118C29.0281 1.9957 28.0115 0.975419 26.7208 0.629172C24.3813 0 15 0 15 0C15 0 5.61879 0 3.27919 0.629172C1.98847 0.975474 0.971904 1.9957 0.626879 3.29118C0 5.63932 0 10.5385 0 10.5385C0 10.5385 0 15.4377 0.626879 17.7858C0.971904 19.0813 1.98847 20.0591 3.27919 20.4053C5.61879 21.0345 15 21.0345 15 21.0345C15 21.0345 24.3812 21.0345 26.7208 20.4053C28.0115 20.0591 29.0281 19.0813 29.3731 17.7858C30 15.4377 30 10.5385 30 10.5385C30 10.5385 30 5.63932 29.3731 3.29118V3.29118ZM11.9318 14.9866V6.09041L19.7727 10.5386L11.9318 14.9866V14.9866Z" fill="url(#paint0_linear)" fill-opacity="0.4" style="mix-blend-mode:soft-light"/>
<defs>
<linearGradient id="paint0_linear" x1="2.53378" y1="1.84762" x2="17.9358" y2="25.3968" gradientUnits="userSpaceOnUse">
<stop stop-color="white"/>
<stop offset="1"/>
</linearGradient>
</defs>
</svg>
