<svg width="30" height="30" viewBox="0 0 30 30" fill="none" xmlns="http://www.w3.org/2000/svg">
<path d="M15 0C6.71371 0 0 6.71371 0 15C0 23.2863 6.71371 30 15 30C23.2863 30 30 23.2863 30 15C30 6.71371 23.2863 0 15 0ZM20.5942 18.9315L19.3845 20.4435C19.3051 20.5428 19.2069 20.6254 19.0956 20.6868C18.9843 20.7481 18.862 20.7869 18.7357 20.8009C18.6093 20.8149 18.4815 20.804 18.3594 20.7686C18.2373 20.7332 18.1234 20.6742 18.0242 20.5948L13.9718 17.5875C13.6886 17.3608 13.4601 17.0733 13.303 16.7464C13.146 16.4194 13.0645 16.0613 13.0645 15.6986V6.29032C13.0645 6.03366 13.1665 5.78751 13.348 5.60603C13.5294 5.42454 13.7756 5.32258 14.0323 5.32258H15.9677C16.2244 5.32258 16.4706 5.42454 16.652 5.60603C16.8335 5.78751 16.9355 6.03366 16.9355 6.29032V15L20.4435 17.5706C20.5428 17.65 20.6255 17.7482 20.6868 17.8596C20.7481 17.971 20.7869 18.0934 20.8009 18.2198C20.8149 18.3462 20.8038 18.4741 20.7683 18.5962C20.7329 18.7183 20.6737 18.8322 20.5942 18.9315Z" fill="#FB8F1D"/>
<path d="M15 0C6.71371 0 0 6.71371 0 15C0 23.2863 6.71371 30 15 30C23.2863 30 30 23.2863 30 15C30 6.71371 23.2863 0 15 0ZM20.5942 18.9315L19.3845 20.4435C19.3051 20.5428 19.2069 20.6254 19.0956 20.6868C18.9843 20.7481 18.862 20.7869 18.7357 20.8009C18.6093 20.8149 18.4815 20.804 18.3594 20.7686C18.2373 20.7332 18.1234 20.6742 18.0242 20.5948L13.9718 17.5875C13.6886 17.3608 13.4601 17.0733 13.303 16.7464C13.146 16.4194 13.0645 16.0613 13.0645 15.6986V6.29032C13.0645 6.03366 13.1665 5.78751 13.348 5.60603C13.5294 5.42454 13.7756 5.32258 14.0323 5.32258H15.9677C16.2244 5.32258 16.4706 5.42454 16.652 5.60603C16.8335 5.78751 16.9355 6.03366 16.9355 6.29032V15L20.4435 17.5706C20.5428 17.65 20.6255 17.7482 20.6868 17.8596C20.7481 17.971 20.7869 18.0934 20.8009 18.2198C20.8149 18.3462 20.8038 18.4741 20.7683 18.5962C20.7329 18.7183 20.6737 18.8322 20.5942 18.9315Z" fill="url(#paint0_linear)" fill-opacity="0.4" style="mix-blend-mode:soft-light"/>
<defs>
<linearGradient id="paint0_linear" x1="2.53378" y1="2.63514" x2="26.4527" y2="28.277" gradientUnits="userSpaceOnUse">
<stop stop-color="white"/>
<stop offset="1"/>
</linearGradient>
</defs>
</svg>
