<svg width="30" height="30" viewBox="0 0 30 30" fill="none" xmlns="http://www.w3.org/2000/svg">
<path d="M15.0033 7.20687C10.7468 7.20687 7.31344 10.5933 7.31344 14.7917C7.31344 18.99 10.7468 22.3765 15.0033 22.3765C19.2599 22.3765 22.6933 18.99 22.6933 14.7917C22.6933 10.5933 19.2599 7.20687 15.0033 7.20687ZM15.0033 19.7228C12.2527 19.7228 10.0039 17.5114 10.0039 14.7917C10.0039 12.072 12.246 9.86056 15.0033 9.86056C17.7607 9.86056 20.0028 12.072 20.0028 14.7917C20.0028 17.5114 17.754 19.7228 15.0033 19.7228V19.7228ZM24.8015 6.89662C24.8015 7.8802 23.9983 8.66574 23.0078 8.66574C22.0106 8.66574 21.2142 7.8736 21.2142 6.89662C21.2142 5.91964 22.0173 5.12749 23.0078 5.12749C23.9983 5.12749 24.8015 5.91964 24.8015 6.89662ZM29.8946 8.69215C29.7808 6.32231 29.232 4.22313 27.4718 2.49361C25.7184 0.76409 23.5901 0.222791 21.1874 0.103969C18.7111 -0.0346564 11.2889 -0.0346564 8.81261 0.103969C6.41662 0.21619 4.28834 0.757489 2.52817 2.48701C0.767987 4.21652 0.225878 6.31571 0.10541 8.68555C-0.0351366 11.128 -0.0351366 18.4487 0.10541 20.8912C0.219186 23.261 0.767987 25.3602 2.52817 27.0897C4.28834 28.8192 6.40993 29.3605 8.81261 29.4794C11.2889 29.618 18.7111 29.618 21.1874 29.4794C23.5901 29.3671 25.7184 28.8258 27.4718 27.0897C29.2253 25.3602 29.7741 23.261 29.8946 20.8912C30.0351 18.4487 30.0351 11.1346 29.8946 8.69215V8.69215ZM26.6955 23.5119C26.1735 24.8057 25.1629 25.8025 23.8444 26.324C21.8701 27.0963 17.1852 26.9181 15.0033 26.9181C12.8215 26.9181 8.12995 27.0897 6.1623 26.324C4.85053 25.8091 3.83993 24.8123 3.31121 23.5119C2.52817 21.5645 2.70887 16.9437 2.70887 14.7917C2.70887 12.6397 2.53486 8.01222 3.31121 6.07147C3.83324 4.77763 4.84384 3.78084 6.1623 3.25935C8.13664 2.48701 12.8215 2.66524 15.0033 2.66524C17.1852 2.66524 21.8767 2.49361 23.8444 3.25935C25.1562 3.77424 26.1668 4.77103 26.6955 6.07147C27.4785 8.01882 27.2978 12.6397 27.2978 14.7917C27.2978 16.9437 27.4785 21.5711 26.6955 23.5119Z" fill="#FB8F1D"/>
<path d="M15.0033 7.20687C10.7468 7.20687 7.31344 10.5933 7.31344 14.7917C7.31344 18.99 10.7468 22.3765 15.0033 22.3765C19.2599 22.3765 22.6933 18.99 22.6933 14.7917C22.6933 10.5933 19.2599 7.20687 15.0033 7.20687ZM15.0033 19.7228C12.2527 19.7228 10.0039 17.5114 10.0039 14.7917C10.0039 12.072 12.246 9.86056 15.0033 9.86056C17.7607 9.86056 20.0028 12.072 20.0028 14.7917C20.0028 17.5114 17.754 19.7228 15.0033 19.7228V19.7228ZM24.8015 6.89662C24.8015 7.8802 23.9983 8.66574 23.0078 8.66574C22.0106 8.66574 21.2142 7.8736 21.2142 6.89662C21.2142 5.91964 22.0173 5.12749 23.0078 5.12749C23.9983 5.12749 24.8015 5.91964 24.8015 6.89662ZM29.8946 8.69215C29.7808 6.32231 29.232 4.22313 27.4718 2.49361C25.7184 0.76409 23.5901 0.222791 21.1874 0.103969C18.7111 -0.0346564 11.2889 -0.0346564 8.81261 0.103969C6.41662 0.21619 4.28834 0.757489 2.52817 2.48701C0.767987 4.21652 0.225878 6.31571 0.10541 8.68555C-0.0351366 11.128 -0.0351366 18.4487 0.10541 20.8912C0.219186 23.261 0.767987 25.3602 2.52817 27.0897C4.28834 28.8192 6.40993 29.3605 8.81261 29.4794C11.2889 29.618 18.7111 29.618 21.1874 29.4794C23.5901 29.3671 25.7184 28.8258 27.4718 27.0897C29.2253 25.3602 29.7741 23.261 29.8946 20.8912C30.0351 18.4487 30.0351 11.1346 29.8946 8.69215V8.69215ZM26.6955 23.5119C26.1735 24.8057 25.1629 25.8025 23.8444 26.324C21.8701 27.0963 17.1852 26.9181 15.0033 26.9181C12.8215 26.9181 8.12995 27.0897 6.1623 26.324C4.85053 25.8091 3.83993 24.8123 3.31121 23.5119C2.52817 21.5645 2.70887 16.9437 2.70887 14.7917C2.70887 12.6397 2.53486 8.01222 3.31121 6.07147C3.83324 4.77763 4.84384 3.78084 6.1623 3.25935C8.13664 2.48701 12.8215 2.66524 15.0033 2.66524C17.1852 2.66524 21.8767 2.49361 23.8444 3.25935C25.1562 3.77424 26.1668 4.77103 26.6955 6.07147C27.4785 8.01882 27.2978 12.6397 27.2978 14.7917C27.2978 16.9437 27.4785 21.5711 26.6955 23.5119Z" fill="url(#paint0_linear)" fill-opacity="0.4" style="mix-blend-mode:soft-light"/>
<defs>
<linearGradient id="paint0_linear" x1="2.53378" y1="2.59854" x2="26.0953" y2="28.213" gradientUnits="userSpaceOnUse">
<stop stop-color="white"/>
<stop offset="1"/>
</linearGradient>
</defs>
</svg>
