<svg width="38" height="50" viewBox="0 0 38 50" fill="none" xmlns="http://www.w3.org/2000/svg">
<path d="M16.7131 48.9912C2.61657 28.421 0 26.3099 0 18.75C0 8.39463 8.33976 0 18.6275 0C28.9151 0 37.2549 8.39463 37.2549 18.75C37.2549 26.3099 34.6383 28.421 20.5418 48.9912C19.6167 50.3363 17.6381 50.3362 16.7131 48.9912ZM18.6275 26.5625C22.914 26.5625 26.3889 23.0647 26.3889 18.75C26.3889 14.4353 22.914 10.9375 18.6275 10.9375C14.3409 10.9375 10.866 14.4353 10.866 18.75C10.866 23.0647 14.3409 26.5625 18.6275 26.5625Z" fill="#202336"/>
</svg>
