<svg width="100" height="88" viewBox="0 0 100 88" fill="none" xmlns="http://www.w3.org/2000/svg">
<path d="M90.625 0H9.375C4.19922 0 0 4.19922 0 9.375V78.125C0 83.3008 4.19922 87.5 9.375 87.5H90.625C95.8008 87.5 100 83.3008 100 78.125V9.375C100 4.19922 95.8008 0 90.625 0ZM74.2969 56.7383C75.2344 57.6758 75.2344 59.1992 74.2969 60.1367L66.3867 68.0469C65.4492 68.9844 63.9258 68.9844 62.9883 68.0469L50 54.9414L37.0117 68.0469C36.0742 68.9844 34.5508 68.9844 33.6133 68.0469L25.7031 60.1367C24.7656 59.1992 24.7656 57.6758 25.7031 56.7383L38.8086 43.75L25.7031 30.7617C24.7656 29.8242 24.7656 28.3008 25.7031 27.3633L33.6133 19.4531C34.5508 18.5156 36.0742 18.5156 37.0117 19.4531L50 32.5586L62.9883 19.4531C63.9258 18.5156 65.4492 18.5156 66.3867 19.4531L74.2969 27.3633C75.2344 28.3008 75.2344 29.8242 74.2969 30.7617L61.1914 43.75L74.2969 56.7383Z" fill="#FB8F1D"/>
<path d="M90.625 0H9.375C4.19922 0 0 4.19922 0 9.375V78.125C0 83.3008 4.19922 87.5 9.375 87.5H90.625C95.8008 87.5 100 83.3008 100 78.125V9.375C100 4.19922 95.8008 0 90.625 0ZM74.2969 56.7383C75.2344 57.6758 75.2344 59.1992 74.2969 60.1367L66.3867 68.0469C65.4492 68.9844 63.9258 68.9844 62.9883 68.0469L50 54.9414L37.0117 68.0469C36.0742 68.9844 34.5508 68.9844 33.6133 68.0469L25.7031 60.1367C24.7656 59.1992 24.7656 57.6758 25.7031 56.7383L38.8086 43.75L25.7031 30.7617C24.7656 29.8242 24.7656 28.3008 25.7031 27.3633L33.6133 19.4531C34.5508 18.5156 36.0742 18.5156 37.0117 19.4531L50 32.5586L62.9883 19.4531C63.9258 18.5156 65.4492 18.5156 66.3867 19.4531L74.2969 27.3633C75.2344 28.3008 75.2344 29.8242 74.2969 30.7617L61.1914 43.75L74.2969 56.7383Z" fill="url(#paint0_linear)" fill-opacity="0.4" style="mix-blend-mode:soft-light"/>
<defs>
<linearGradient id="paint0_linear" x1="8.44594" y1="7.68581" x2="76.9605" y2="91.6286" gradientUnits="userSpaceOnUse">
<stop stop-color="white"/>
<stop offset="1"/>
</linearGradient>
</defs>
</svg>
