<svg width="60" height="60" viewBox="0 0 60 60" fill="none" xmlns="http://www.w3.org/2000/svg">
<path d="M55.7143 23.5714H36.4286V4.28571C36.4286 1.9192 34.5094 0 32.1429 0H27.8571C25.4906 0 23.5714 1.9192 23.5714 4.28571V23.5714H4.28571C1.9192 23.5714 0 25.4906 0 27.8571V32.1429C0 34.5094 1.9192 36.4286 4.28571 36.4286H23.5714V55.7143C23.5714 58.0808 25.4906 60 27.8571 60H32.1429C34.5094 60 36.4286 58.0808 36.4286 55.7143V36.4286H55.7143C58.0808 36.4286 60 34.5094 60 32.1429V27.8571C60 25.4906 58.0808 23.5714 55.7143 23.5714Z" fill="#FB8F1D"/>
<path d="M55.7143 23.5714H36.4286V4.28571C36.4286 1.9192 34.5094 0 32.1429 0H27.8571C25.4906 0 23.5714 1.9192 23.5714 4.28571V23.5714H4.28571C1.9192 23.5714 0 25.4906 0 27.8571V32.1429C0 34.5094 1.9192 36.4286 4.28571 36.4286H23.5714V55.7143C23.5714 58.0808 25.4906 60 27.8571 60H32.1429C34.5094 60 36.4286 58.0808 36.4286 55.7143V36.4286H55.7143C58.0808 36.4286 60 34.5094 60 32.1429V27.8571C60 25.4906 58.0808 23.5714 55.7143 23.5714Z" fill="url(#paint0_linear)" fill-opacity="0.4" style="mix-blend-mode:soft-light"/>
<defs>
<linearGradient id="paint0_linear" x1="5.06757" y1="5.27027" x2="52.9054" y2="56.5541" gradientUnits="userSpaceOnUse">
<stop stop-color="white"/>
<stop offset="1"/>
</linearGradient>
</defs>
</svg>
