<?xml version="1.0" encoding="utf-8"?>
<!-- Generator: Adobe Illustrator 24.2.0, SVG Export Plug-In . SVG Version: 6.00 Build 0)  -->
<svg version="1.1" id="Layer_1" focusable="false" xmlns="http://www.w3.org/2000/svg" xmlns:xlink="http://www.w3.org/1999/xlink"
	 x="0px" y="0px" viewBox="0 0 150 150" style="enable-background:new 0 0 150 150;" xml:space="preserve">
<style type="text/css">
	.st0{fill:#4A4C53;}
</style>
<path class="st0" d="M75,99.4c23.8,0,43.1-19.3,43.1-43.1S98.8,13.1,75,13.1S31.9,32.4,31.9,56.2S51.2,99.4,75,99.4z M105.2,110.1
	h-5.6c-7.5,3.4-15.8,5.4-24.6,5.4s-17-2-24.6-5.4h-5.6c-25,0-45.3,20.3-45.3,45.3v14c0,8.9,7.2,16.2,16.2,16.2h118.6
	c8.9,0,16.2-7.2,16.2-16.2v-14C150.5,130.4,130.2,110.1,105.2,110.1z"/>
</svg>
